<?xml version="1.0" encoding="utf-8"?>
<!-- Generator: Adobe Illustrator 24.1.2, SVG Export Plug-In . SVG Version: 6.00 Build 0)  -->
<svg version="1.1" id="Ebene_1" xmlns="http://www.w3.org/2000/svg" xmlns:xlink="http://www.w3.org/1999/xlink" x="0px" y="0px"
	 viewBox="0 0 120.90265 120.90265" style="enable-background:new 0 0 120.90265 120.90265;" xml:space="preserve">
<style type="text/css">
	.st0{fill:none;}
	.st1{fill:#9D9D9C;}
</style>
<g>
	<path class="st0" d="M26.05476,56.39396c-0.11211,1.32371-0.17041,2.67596-0.17041,4.05573
		c0,1.37997,0.0583,2.73222,0.17041,4.05614c1.67798,19.70995,15.6108,33.145,34.78365,33.33315
		c19.53281-0.20078,34.17764-15.32665,34.17845-37.38765H60.45132V23.08426C41.4813,23.45116,27.72112,36.81915,26.05476,56.39396z"
		/>
	<path d="M60.83841,97.83897c-19.17284-0.18814-33.10567-13.62319-34.78365-33.33315
		c-0.11211-1.32391-0.17041-2.67617-0.17041-4.05614c0-1.37977,0.0583-2.73202,0.17041-4.05573
		c1.66636-19.57481,15.42653-32.9428,34.39656-33.30971V0c-0.00021,0-0.00061,0-0.00082,0
		c-0.08235,0-0.16042,0.01101-0.24277,0.01121C60.12947,0.01101,60.05588,0,59.9774,0C25.56984,0,0,25.21373,0,60.44969
		s25.56984,60.45296,59.82024,60.45296c0.10498,0,0.20302-0.01447,0.3078-0.01488c0.10925,0.00041,0.21301,0.01488,0.32247,0.01488
		c34.72433,0,60.45132-25.54905,60.45214-60.45132H95.01686C95.01604,82.51232,80.37122,97.6382,60.83841,97.83897z"/>
	<path class="st1" d="M60.45132,0v23.08426c0.13086-0.00245,0.25581-0.01937,0.38708-0.02059
		c19.53323,0.20078,34.17845,15.32401,34.17845,37.38602c0,0.00061,0,0.00102,0,0.00163h25.88579c0-0.00061,0-0.00102,0-0.00163
		C120.90265,25.54986,95.17606,0.00041,60.45132,0z"/>
</g>
</svg>
